<svg xmlns="http://www.w3.org/2000/svg" viewBox="0 0 64 64" role="img" aria-label="PMCR-O loop logo">
<defs><linearGradient id="g" x1="0" y1="0" x2="1" y2="0"><stop offset="0" stop-color="#FF8A3D"/><stop offset="1" stop-color="#E0389A"/></linearGradient></defs>
<path d="M60.0,32.0 L60.0,32.7 L59.9,33.5 L59.7,34.2 L59.5,34.9 L59.3,35.6 L59.0,36.2 L58.6,36.9 L58.3,37.5 L57.8,38.0 L57.3,38.6 L56.8,39.1 L56.3,39.5 L55.7,39.9 L55.2,40.3 L54.6,40.6 L53.9,40.9 L53.3,41.2 L52.7,41.4 L52.0,41.6 L51.4,41.7 L50.8,41.8 L50.1,41.9 L49.5,41.9 L48.8,41.9 L48.2,41.9 L47.6,41.8 L47.0,41.7 L46.4,41.6 L45.8,41.5 L45.2,41.3 L44.6,41.2 L44.1,41.0 L43.5,40.8 L43.0,40.5 L42.5,40.3 L41.9,40.0 L41.4,39.8 L41.0,39.5 L40.5,39.2 L40.0,38.9 L39.5,38.6 L39.1,38.3 L38.6,38.0 L38.2,37.7 L37.8,37.3 L37.4,37.0 L36.9,36.7 L36.5,36.3 L36.1,36.0 L35.7,35.6 L35.4,35.3 L35.0,34.9 L34.6,34.6 L34.2,34.2 L33.8,33.8 L33.5,33.5 L33.1,33.1 L32.7,32.7 L32.4,32.4 L32.0,32.0 L31.6,31.6 L31.3,31.3 L30.9,30.9 L30.5,30.5 L30.2,30.2 L29.8,29.8 L29.4,29.4 L29.0,29.1 L28.6,28.7 L28.3,28.4 L27.9,28.0 L27.5,27.7 L27.1,27.3 L26.6,27.0 L26.2,26.7 L25.8,26.3 L25.4,26.0 L24.9,25.7 L24.5,25.4 L24.0,25.1 L23.5,24.8 L23.0,24.5 L22.6,24.2 L22.1,24.0 L21.5,23.7 L21.0,23.5 L20.5,23.2 L19.9,23.0 L19.4,22.8 L18.8,22.7 L18.2,22.5 L17.6,22.4 L17.0,22.3 L16.4,22.2 L15.8,22.1 L15.2,22.1 L14.5,22.1 L13.9,22.1 L13.2,22.2 L12.6,22.3 L12.0,22.4 L11.3,22.6 L10.7,22.8 L10.1,23.1 L9.4,23.4 L8.8,23.7 L8.3,24.1 L7.7,24.5 L7.2,24.9 L6.7,25.4 L6.2,26.0 L5.7,26.5 L5.4,27.1 L5.0,27.8 L4.7,28.4 L4.5,29.1 L4.3,29.8 L4.1,30.5 L4.0,31.3 L4.0,32.0 L4.0,32.7 L4.1,33.5 L4.3,34.2 L4.5,34.9 L4.7,35.6 L5.0,36.2 L5.4,36.9 L5.7,37.5 L6.2,38.0 L6.7,38.6 L7.2,39.1 L7.7,39.5 L8.3,39.9 L8.8,40.3 L9.4,40.6 L10.1,40.9 L10.7,41.2 L11.3,41.4 L12.0,41.6 L12.6,41.7 L13.2,41.8 L13.9,41.9 L14.5,41.9 L15.2,41.9 L15.8,41.9 L16.4,41.8 L17.0,41.7 L17.6,41.6 L18.2,41.5 L18.8,41.3 L19.4,41.2 L19.9,41.0 L20.5,40.8 L21.0,40.5 L21.5,40.3 L22.1,40.0 L22.6,39.8 L23.0,39.5 L23.5,39.2 L24.0,38.9 L24.5,38.6 L24.9,38.3 L25.4,38.0 L25.8,37.7 L26.2,37.3 L26.6,37.0 L27.1,36.7 L27.5,36.3 L27.9,36.0 L28.3,35.6 L28.6,35.3 L29.0,34.9 L29.4,34.6 L29.8,34.2 L30.2,33.8 L30.5,33.5 L30.9,33.1 L31.3,32.7 L31.6,32.4 L32.0,32.0 L32.4,31.6 L32.7,31.3 L33.1,30.9 L33.5,30.5 L33.8,30.2 L34.2,29.8 L34.6,29.4 L35.0,29.1 L35.4,28.7 L35.7,28.4 L36.1,28.0 L36.5,27.7 L36.9,27.3 L37.4,27.0 L37.8,26.7 L38.2,26.3 L38.6,26.0 L39.1,25.7 L39.5,25.4 L40.0,25.1 L40.5,24.8 L41.0,24.5 L41.4,24.2 L41.9,24.0 L42.5,23.7 L43.0,23.5 L43.5,23.2 L44.1,23.0 L44.6,22.8 L45.2,22.7 L45.8,22.5 L46.4,22.4 L47.0,22.3 L47.6,22.2 L48.2,22.1 L48.8,22.1 L49.5,22.1 L50.1,22.1 L50.8,22.2 L51.4,22.3 L52.0,22.4 L52.7,22.6 L53.3,22.8 L53.9,23.1 L54.6,23.4 L55.2,23.7 L55.7,24.1 L56.3,24.5 L56.8,24.9 L57.3,25.4 L57.8,26.0 L58.3,26.5 L58.6,27.1 L59.0,27.8 L59.3,28.4 L59.5,29.1 L59.7,29.8 L59.9,30.5 L60.0,31.3 L60.0,32.0 Z" fill="none" stroke="url(#g)" stroke-width="5" stroke-linejoin="round"/>
<circle cx="60.0" cy="32.0" r="4.2" fill="#FFC24B" stroke="#0B1026" stroke-width="1.5"/><circle cx="36.5" cy="36.3" r="4.2" fill="#FFC24B" stroke="#0B1026" stroke-width="1.5"/><circle cx="15.2" cy="22.1" r="4.2" fill="#FFC24B" stroke="#0B1026" stroke-width="1.5"/><circle cx="15.2" cy="41.9" r="4.2" fill="#FFC24B" stroke="#0B1026" stroke-width="1.5"/><circle cx="36.5" cy="27.7" r="4.2" fill="#FFC24B" stroke="#0B1026" stroke-width="1.5"/>
</svg>
